<?xml version="1.0" encoding="UTF-8"?><svg id="Capa_2" xmlns="http://www.w3.org/2000/svg" viewBox="0 0 51.45 36.53"><defs><style>.cls-1{fill:#0042ba;}</style></defs><g id="Capa_2-2"><g><path class="cls-1" d="M21.24,17.13c-.1-.1-.22-.19-.38-.24-.15-.06-.34-.09-.57-.08-.29,0-.52,.05-.7,.14-.19,.1-.33,.22-.44,.35-.11,.14-.19,.29-.23,.44-.03,.09-.05,.17-.06,.25l2.77-.02c-.09-.37-.23-.65-.41-.84Z"/><path class="cls-1" d="M38.59,11.41c.09,.13,.2,.22,.34,.3,.13,.07,.29,.12,.47,.12,.18,0,.34-.04,.47-.12,.14-.08,.25-.18,.34-.3,.09-.12,.16-.27,.2-.42,.05-.16,.07-.32,.07-.48,0-.16-.02-.32-.07-.48-.05-.16-.11-.3-.2-.42-.09-.13-.2-.23-.34-.3-.14-.07-.3-.11-.48-.11-.18,0-.34,.04-.47,.12-.14,.08-.25,.18-.34,.3-.09,.13-.16,.26-.2,.43-.04,.16-.07,.32-.06,.48,0,.16,.02,.33,.07,.48,.05,.16,.12,.3,.21,.42Z"/><path class="cls-1" d="M33.07,10.53c-.16,.03-.33,.05-.49,.08-.17,.02-.33,.06-.47,.1-.14,.05-.25,.11-.34,.19-.09,.08-.13,.2-.13,.35,0,.1,.02,.18,.06,.26,.04,.07,.09,.14,.15,.19,.06,.05,.14,.1,.22,.12,.08,.03,.17,.04,.26,.04,.14,0,.28-.02,.41-.07,.13-.05,.25-.11,.34-.2,.1-.09,.18-.19,.23-.31,.06-.12,.08-.25,.08-.4v-.49h-.02s-.07,.08-.14,.1c-.07,.02-.13,.03-.18,.04Z"/><path class="cls-1" d="M28.71,11.46c.08,.12,.19,.22,.32,.3,.13,.07,.28,.11,.46,.11,.2,0,.37-.04,.51-.12,.14-.08,.25-.18,.33-.3,.08-.13,.15-.27,.18-.42,.04-.16,.05-.32,.05-.48,0-.16-.02-.32-.06-.48-.04-.16-.1-.3-.19-.42-.09-.12-.2-.23-.34-.3-.14-.08-.3-.11-.51-.11-.18,0-.33,.04-.46,.12-.13,.08-.23,.18-.31,.3-.08,.13-.14,.27-.18,.42-.04,.16-.06,.32-.06,.48,0,.16,.02,.32,.06,.48,.04,.16,.1,.3,.18,.42Z"/><path class="cls-1" d="M44.94,17.32c-.12-.18-.27-.33-.48-.45-.19-.11-.43-.17-.74-.17-.31,0-.55,.06-.73,.18-.2,.12-.35,.27-.46,.46-.12,.19-.2,.41-.25,.67-.05,.27-.08,.53-.07,.8,0,.27,.03,.53,.08,.79,.05,.25,.14,.47,.26,.67,.12,.19,.27,.33,.47,.45,.19,.1,.43,.16,.73,.16,.3,0,.55-.06,.74-.17,.2-.11,.35-.26,.47-.45,.12-.2,.21-.42,.25-.67,.05-.26,.08-.52,.08-.8,0-.28-.03-.54-.08-.8-.05-.25-.14-.48-.26-.66Z"/><path class="cls-1" d="M13.28,18.78c-.34-.21-.78-.1-.99,.24-.44,.73-1.21,1.16-2.06,1.17-.85,0-1.62-.43-2.07-1.15-.21-.34-.65-.44-.99-.23-.34,.21-.44,.65-.23,.99,.71,1.15,1.95,1.83,3.3,1.83,1.36,0,2.58-.7,3.29-1.86,.21-.34,.1-.78-.24-.99Z"/><path class="cls-1" d="M33.13,0c-6.52,.02-12.22,3.46-15.43,8.6-1.81-1.19-3.98-1.89-6.31-1.88C5.07,6.75-.02,11.88,0,18.19c.02,6.3,5.15,11.4,11.46,11.38,2.26,0,4.36-.68,6.13-1.81,3.22,5.28,9.04,8.8,15.67,8.77,10.09-.04,18.23-8.24,18.2-18.33C51.42,8.11,43.21-.03,33.13,0Zm8.47,8.94v.53h.02c.07-.19,.2-.34,.38-.45,.18-.11,.38-.17,.6-.17,.22,0,.4,.03,.55,.08,.15,.06,.26,.13,.35,.24,.09,.1,.15,.23,.19,.37,.04,.15,.06,.32,.06,.5v1.99s-.37,0-.37,0v-1.93c-.01-.13-.02-.26-.05-.37-.02-.11-.07-.21-.13-.3-.06-.08-.14-.15-.24-.2-.1-.05-.23-.07-.38-.07-.15,0-.29,.03-.4,.08-.12,.06-.22,.13-.3,.23-.08,.1-.15,.21-.19,.34-.04,.13-.07,.27-.07,.42v1.81s-.37,0-.37,0l-.02-3.1h.38Zm-1.93-1.27h.47s-.79,.85-.79,.85h-.31l.63-.85Zm-1.63,2.2c.06-.2,.16-.37,.28-.52,.12-.15,.28-.26,.46-.35,.18-.09,.39-.13,.62-.14,.24,0,.45,.04,.63,.13,.18,.09,.34,.21,.46,.35,.12,.15,.22,.32,.28,.52,.06,.2,.1,.41,.1,.63,0,.23-.03,.43-.09,.63-.06,.2-.16,.37-.28,.52-.12,.15-.28,.27-.46,.35-.18,.09-.39,.13-.63,.13s-.44-.04-.63-.13c-.18-.08-.33-.2-.46-.35-.12-.15-.22-.32-.28-.52-.07-.2-.1-.41-.1-.63,0-.22,.03-.43,.09-.63Zm-.44,2.18h-.38s-.02-3.09-.02-3.09h.38s.02,3.09,.02,3.09Zm-.02-4.28v.6s-.37,0-.37,0v-.61s.37,0,.37,0Zm-9.39,2.16c.05-.2,.14-.38,.26-.52,.11-.15,.26-.27,.43-.36,.17-.09,.38-.13,.61-.13,.12,0,.23,.01,.34,.04,.11,.03,.21,.07,.31,.13,.1,.06,.18,.12,.26,.21,.07,.08,.13,.18,.17,.29h.01v-1.77s.37,0,.37,0l.02,4.28h-.35s0-.58,0-.58h-.01c-.04,.1-.1,.19-.17,.28-.08,.09-.17,.16-.27,.21-.1,.06-.21,.1-.32,.14-.11,.04-.23,.05-.34,.05-.24,0-.44-.04-.62-.13-.17-.09-.32-.2-.44-.35-.12-.15-.2-.32-.26-.52-.05-.2-.08-.41-.09-.63,0-.22,.03-.43,.08-.62Zm-2.57-.91v.53h.02c.07-.19,.2-.34,.38-.45,.18-.11,.39-.17,.61-.17,.22,0,.4,.02,.54,.08,.14,.06,.26,.13,.35,.23,.09,.1,.15,.23,.19,.38,.04,.14,.06,.31,.06,.5v1.99s-.37,0-.37,0v-1.93c-.01-.13-.02-.26-.05-.37-.03-.11-.07-.21-.13-.3-.06-.08-.14-.15-.24-.2-.1-.05-.23-.07-.38-.07s-.29,.03-.4,.09c-.12,.05-.22,.13-.3,.22-.08,.1-.14,.21-.19,.34-.05,.13-.07,.27-.07,.42v1.81s-.37,0-.37,0l-.02-3.1h.38Zm-2.98,.01v2.02c.02,.28,.09,.49,.21,.63,.12,.14,.33,.21,.64,.21,.16,0,.3-.04,.42-.1,.12-.07,.21-.16,.29-.28,.07-.11,.13-.25,.16-.4,.04-.15,.05-.3,.05-.46v-1.63s.37,0,.37,0l.02,3.1h-.35v-.56h-.02c-.1,.21-.24,.36-.43,.48-.19,.11-.4,.17-.63,.17-.2,0-.36-.02-.5-.08-.14-.05-.25-.13-.34-.23-.09-.1-.15-.22-.19-.37-.04-.14-.06-.31-.06-.49v-2.01s.37,0,.37,0Zm-1.48-.27c0-.13,0-.25,.03-.37,.02-.11,.06-.21,.11-.29,.05-.08,.13-.14,.23-.19,.1-.04,.22-.07,.38-.07,.05,0,.11,0,.16,0,.05,0,.1,0,.16,.02v.32c-.05,0-.1-.01-.14-.02-.04,0-.09,0-.13,0-.1,0-.18,.02-.24,.05-.06,.03-.1,.07-.12,.13-.02,.06-.04,.12-.04,.19,0,.07,0,.15,0,.23v.27s.61,0,.61,0v.32s-.61,0-.61,0v2.78s-.36,0-.36,0v-2.78s-.54,0-.54,0v-.32s.52,0,.52,0v-.28Zm-1.61,5.69l1.09-1.38s.03-.06,.13-.06h2.07c.09-.01,.02,.05,.02,.05l-1.83,1.41s-.05,.05-.16,.05h-1.29c-.09,0-.02-.07-.02-.07Zm-9.19,8.33c-2.71,.01-4.91-2.18-4.92-4.89-.01-2.71,2.18-4.91,4.88-4.92,2.71,0,4.91,2.18,4.92,4.88,0,2.71-2.18,4.91-4.88,4.92Zm12.2-.56c-.6,.39-1.32,.58-2.15,.59-.58,0-1.1-.09-1.58-.27-.47-.19-.88-.45-1.21-.8-.33-.35-.58-.76-.76-1.24-.18-.48-.27-1-.27-1.57,0-.55,.08-1.07,.26-1.55,.18-.48,.44-.9,.77-1.25,.33-.35,.74-.63,1.2-.84,.47-.2,.98-.3,1.55-.31,.63,0,1.18,.12,1.66,.36,.47,.24,.86,.57,1.17,.98,.31,.41,.52,.88,.66,1.4,.1,.41,.16,.83,.16,1.26,0,.12,0,.25-.01,.37v.07s0,.09-.09,.09l-5.03,.03c.02,.23,.06,.43,.12,.6,.07,.21,.17,.37,.3,.49,.13,.12,.28,.22,.47,.28,.19,.07,.42,.1,.68,.1,.37,0,.67-.09,.92-.27,.13-.09,.23-.18,.31-.27,.07-.09,.12-.17,.14-.26l.02-.06s0-.06,.11-.06h1.91c.08-.01,.05,.06,.05,.06l-.05,.16c-.14,.44-.32,.82-.54,1.14-.22,.32-.48,.58-.79,.78Zm8.57,.37l-2.51,.02c-.08,0-.14-.09-.14-.09l-1.34-1.99-1.32,2.01s-.04,.08-.14,.08h-2.47c-.09,.01-.04-.06-.04-.06l2.62-3.87-2.28-3.25-.17-.24s-.04-.05,.04-.05h2.53c.08-.01,.12,.04,.12,.04l1.12,1.65,1.1-1.67s.02-.04,.1-.04h2.47c.09-.01,.06,.03,.06,.03l-2.42,3.49,2.72,3.87s.05,.08-.04,.08Zm2.23-13.06c-.04-.08-.1-.14-.18-.19-.07-.05-.16-.08-.26-.1-.1-.02-.2-.03-.32-.03-.24,0-.43,.06-.59,.18-.15,.11-.23,.3-.24,.55h-.38c0-.18,.05-.34,.11-.47,.06-.13,.15-.24,.26-.33,.11-.08,.24-.15,.38-.19,.15-.04,.31-.06,.5-.06,.14,0,.27,.01,.41,.04,.13,.02,.26,.07,.36,.14,.11,.08,.2,.17,.27,.31,.07,.13,.1,.3,.11,.51v1.64c0,.15,.08,.23,.23,.23,.05,0,.09,0,.12-.03v.32s-.08,.02-.12,.02c-.03,0-.07,0-.13,0-.09,0-.17-.01-.23-.04-.06-.03-.1-.06-.13-.11-.03-.04-.05-.1-.06-.17,0-.07-.02-.14-.02-.22h-.01c-.07,.1-.14,.19-.21,.27-.07,.08-.15,.14-.23,.2-.09,.05-.18,.09-.29,.12-.11,.03-.24,.04-.39,.04-.14,0-.28-.01-.4-.04-.12-.04-.24-.09-.33-.16-.09-.08-.17-.17-.22-.28-.05-.11-.08-.25-.08-.4,0-.22,.04-.38,.14-.51s.22-.22,.38-.28c.16-.07,.34-.11,.53-.14,.2-.02,.4-.05,.6-.08,.08,0,.15-.02,.21-.03,.06-.01,.11-.04,.15-.06,.04-.03,.07-.08,.09-.13,.02-.05,.03-.12,.03-.2,0-.13-.02-.24-.07-.32Zm-.49,16.23c-.77,0-1.39-.62-1.39-1.38,0-.76,.61-1.39,1.38-1.39,.77,0,1.39,.62,1.4,1.38,0,.77-.61,1.39-1.38,1.4Zm1.08-3.27s0,.09-.09,.09h-2.02c-.08,.01-.09-.08-.09-.08l-.45-7.33s-.02-.07,.08-.07h2.85c.07-.01,.07,.07,.07,.07l-.37,7.31Zm.31-11.33c-.07-.2-.1-.41-.1-.63,0-.23,.03-.43,.09-.63,.06-.2,.16-.37,.28-.52,.12-.15,.28-.26,.46-.36,.18-.09,.39-.13,.63-.13,.33,0,.61,.08,.84,.26,.23,.17,.37,.44,.42,.8h-.38c-.05-.23-.15-.41-.29-.54-.14-.13-.34-.2-.59-.2-.18,0-.34,.04-.47,.11-.14,.08-.25,.18-.34,.31-.09,.12-.15,.26-.2,.42-.04,.16-.07,.32-.07,.48s.02,.33,.07,.49c.05,.16,.11,.3,.2,.42,.09,.12,.21,.22,.34,.3,.14,.08,.3,.11,.48,.11,.11,0,.23-.02,.33-.07,.1-.05,.19-.11,.27-.19,.08-.08,.15-.18,.2-.28,.05-.11,.08-.23,.09-.36h.38c-.05,.38-.18,.67-.41,.88-.22,.21-.51,.31-.86,.32-.23,0-.44-.04-.63-.13-.18-.09-.33-.2-.46-.35-.12-.14-.22-.32-.28-.51Zm5.45,11.37h-.08c-.17,.05-.36,.07-.57,.08-.2,0-.4,.02-.6,.02-.31,0-.61-.02-.89-.06-.29-.04-.55-.13-.78-.26-.24-.14-.43-.33-.56-.58-.14-.26-.21-.58-.21-.96l-.02-4.01h-1.11c-.09,0-.07-.08-.07-.08v-1.53s-.02-.06,.08-.07h1.09s-.01-2.06-.01-2.06c0,0,0-.08,.08-.08h2.17c.08-.01,.08,.07,.08,.07v2.05s1.36,0,1.36,0c.08,0,.08,.08,.08,.08v1.52c0,.09-.07,.09-.07,.09h-1.35s.02,3.34,.02,3.34c0,.15,.02,.28,.04,.37,.02,.09,.05,.14,.08,.16,.02,.02,.07,.05,.16,.07,.09,.02,.21,.03,.37,.03,.1,0,.2,0,.3-.02,.09,0,.18-.02,.27-.04l.15-.03s.08-.03,.08,.06v1.75c.01,.09-.06,.09-.06,.09Zm7.66-2.14c-.18,.48-.44,.9-.78,1.24-.34,.34-.75,.61-1.23,.8-.48,.18-1.01,.28-1.58,.28-.58,0-1.11-.08-1.58-.27-.47-.18-.88-.44-1.23-.79-.34-.35-.61-.76-.79-1.24-.19-.48-.28-1.02-.28-1.61,0-.59,.09-1.13,.27-1.62,.18-.48,.44-.9,.78-1.25,.34-.35,.75-.62,1.22-.81,.47-.19,1-.29,1.58-.29,.58,0,1.11,.09,1.59,.27,.48,.19,.89,.45,1.23,.8,.34,.34,.61,.76,.79,1.25,.19,.49,.28,1.02,.28,1.61,0,.58-.09,1.12-.27,1.61Zm1.17-3.72c-.26,0-.47-.09-.65-.27-.18-.18-.27-.4-.27-.65,0-.25,.09-.47,.27-.65s.39-.27,.65-.27c.25,0,.47,.09,.65,.27,.18,.18,.27,.4,.27,.65,0,.25-.09,.47-.27,.66-.18,.18-.4,.27-.65,.27Z"/><path class="cls-1" d="M48.68,15.4s-.12-.04-.22-.04h-.15v.37s.16,0,.16,0c.08,0,.13,0,.17-.02,.07-.03,.1-.08,.1-.16,0-.07-.02-.12-.07-.15Z"/><path class="cls-1" d="M49.07,15.18c-.16-.15-.34-.23-.56-.23-.22,0-.41,.08-.56,.23-.16,.16-.23,.34-.23,.56s.08,.41,.23,.56,.34,.23,.56,.23c.22,0,.41-.08,.56-.24,.15-.16,.23-.35,.23-.56,0-.22-.08-.41-.23-.56Zm-.31,1.06s0,0,0,0c0,0,0-.01,0-.01v-.03s0-.08,0-.08c0-.12-.03-.19-.1-.23-.04-.02-.11-.03-.2-.03h-.14s0,.4,0,.4h-.18s0-1.01,0-1.01h.36c.13,0,.22,0,.28,.03,.1,.04,.16,.13,.16,.26,0,.09-.03,.16-.1,.2-.04,.02-.08,.04-.15,.05,.08,.01,.14,.05,.17,.1,.04,.05,.05,.1,.05,.15v.08s0,.05,0,.08c0,.03,0,.04,.01,.05h0s-.17,.01-.17,.01Z"/></g></g></svg>