<?xml version="1.0" encoding="UTF-8"?>
<svg id="Capa_2" data-name="Capa 2" xmlns="http://www.w3.org/2000/svg" viewBox="0 0 120.54 120.54">
  <defs>
    <style>
      .cls-1 {
        fill: #fff;
      }

      .cls-2 {
        fill: #0042bf;
      }

      .cls-3 {
        fill: none;
      }
    </style>
  </defs>
  <g id="Capa_4" data-name="Capa 4">
    <g>
      <rect class="cls-2" width="120.54" height="120.54"/>
      <g>
        <path class="cls-3" d="M60.06,72.65c1.19,.07,2.44,.15,3.73,.22-1-.83-3.07-.9-3.73-.22Z"/>
        <path class="cls-3" d="M60.13,73.91c1.21,.09,2.42,.17,3.73,.27-.95-.78-2.99-.9-3.73-.27Z"/>
        <path class="cls-3" d="M60.15,68.88c1.2,.07,2.41,.15,3.66,.23-.98-.86-3.13-.96-3.66-.23Z"/>
        <path class="cls-3" d="M63.71,70.35c-.76-.82-2.94-.92-3.7-.18,1.23,.06,2.46,.12,3.7,.18Z"/>
        <path class="cls-3" d="M59.96,67.64c1.29,.06,2.53,.11,3.86,.17-1.08-.81-3.01-.87-3.86-.17Z"/>
        <path class="cls-3" d="M63.89,75.42c-1.3-.86-3.22-.91-3.85-.21,1.22,.07,2.46,.14,3.85,.21Z"/>
        <path class="cls-3" d="M59.8,45.01h3.87c-1.21-.8-2.93-.76-3.87,0Z"/>
        <path class="cls-3" d="M59.97,59.93c0,.08,0,.16,0,.24h3.95c-1.43-.7-2.68-.78-3.95-.24Z"/>
        <path class="cls-3" d="M59.83,46.27h3.83c-1.18-.81-2.88-.79-3.83,0Z"/>
        <path class="cls-3" d="M63.75,50.07c-1.32-.81-3.04-.79-3.95,0h3.95Z"/>
        <path class="cls-3" d="M59.94,58.9h3.86c-1.54-.81-3.2-.8-3.86,0Z"/>
        <path class="cls-3" d="M62.35,95.16c1.18-.78,2.03-2.3,1.82-3.32-1.45,1.17-2.96,1-4.51,.22-.06,.05-.13,.1-.19,.15,.59,1.11,1.19,2.22,1.78,3.32,.12-.71,.28-.76,1.1-.37Z"/>
        <path class="cls-3" d="M63.47,41.24c-1.13-.82-3.05-.72-3.65,0h3.65Z"/>
        <path class="cls-3" d="M63.42,39.72c-1.22-.53-2.42-.41-3.59,.21h3.6c0-.07,0-.14-.01-.21Z"/>
        <path class="cls-3" d="M61.34,96.69c.19-.44,.31-.72,.44-1.05-.17-.03-.35-.05-.53-.08-.11,.31-.21,.61-.35,1,.23,.44,.43,1.09,1.18,.94,.38-.08,.59-.48,.38-.95-.33,.04-.63,.08-1.12,.14Z"/>
        <path class="cls-3" d="M59.94,66.27c0,.07,0,.14,0,.21h3.75c-1.24-.62-2.49-.78-3.75-.21Z"/>
        <path class="cls-3" d="M59.98,62.71h3.74c-1.15-.77-2.79-.81-3.74,0Z"/>
        <path class="cls-3" d="M63.74,65.22c-1.09-.77-3.02-.81-3.8,0h3.8Z"/>
        <path class="cls-3" d="M63.7,42.51c-1.37-.87-3.01-.82-3.96,0h3.96Z"/>
        <path class="cls-3" d="M63.78,63.96c-1.48-.85-3.11-.84-3.85,0h3.85Z"/>
        <path class="cls-3" d="M63.67,47.54c-1.06-.81-3.02-.79-3.87,0h3.87Z"/>
        <path class="cls-3" d="M60.12,81.47c1.26,.11,2.51,.21,3.88,.33-1.25-.89-3.08-1.01-3.88-.33Z"/>
        <path class="cls-3" d="M60.08,80.18c1.32,.11,2.55,.22,3.84,.33-.94-.79-2.79-.95-3.84-.33Z"/>
        <path class="cls-3" d="M59.97,77.71c1.28,.07,2.52,.15,3.88,.23-1.24-.82-2.91-.9-3.88-.23Z"/>
        <path class="cls-3" d="M60.04,78.95c1.29,.08,2.48,.16,3.75,.25-1.07-.77-2.79-.88-3.75-.25Z"/>
        <path class="cls-3" d="M59.97,76.44c1.34,.1,2.62,.19,3.92,.28-.97-.89-2.85-1.03-3.92-.28Z"/>
        <path class="cls-3" d="M60.09,82.72c1.24,.1,2.44,.21,3.73,.31-.95-.84-2.95-.97-3.73-.31Z"/>
        <path class="cls-3" d="M63.59,51.32c-1.07-.81-2.6-.82-3.83,0h3.83Z"/>
        <path class="cls-3" d="M60.18,83.99c1.21,.11,2.45,.23,3.82,.36-1.29-.93-3.24-1.05-3.82-.36Z"/>
        <path class="cls-3" d="M60.14,85.24c1.25,.11,2.48,.22,3.87,.34-1.33-.86-3.07-.98-3.87-.34Z"/>
        <path class="cls-3" d="M91.69,34.08c-2.26-1.23-4.56-2.38-6.88-3.49-3.44-1.64-6.99-3-10.6-4.26-3.73-1.3-9.84,.44-11.57,4.46-.1,.22-.26,.42-.47,.76-.29-.39-.5-.68-.72-.97-.47-.63-.85-1.39-1.44-1.88-2.9-2.4-6.14-3.65-9.91-2.33-2.85,1-5.69,2.02-8.47,3.19-3.22,1.35-6.43,2.73-9.34,4.69-.55,.37-1.02,.94-1.35,1.52-.38,.66,0,1.46,.74,1.63,.64,.15,1.32,.2,1.97,.17,1.8-.1,3.29-.99,4.7-2.03,1.6-1.17,3.13-2.45,4.84-3.44,3.83-2.22,8.06-2.86,12.44-2.79,2.8,.04,4.16,1.4,4.6,4.24,.26,1.7,.61,3.48-.8,5.17h5.06c-.2-.57-.53-1.03-.5-1.47,.1-1.77,.22-3.55,.52-5.29,.25-1.48,1.47-2.49,2.95-2.62,1.38-.12,2.77-.21,4.15-.14,2,.11,3.97,.37,5.88,1.09,2.94,1.11,5.5,2.78,7.9,4.78,.9,.75,1.93,1.4,2.98,1.92,1.21,.6,2.54,.8,3.9,.47,1.08-.26,1.44-1.01,.85-1.92-.37-.56-.84-1.16-1.41-1.47Z"/>
        <path class="cls-3" d="M59.8,55.12h3.87c-1.16-.82-3-.82-3.87,0Z"/>
        <path class="cls-3" d="M59.86,56.38h3.82c-1.19-.79-3.1-.76-3.82,0Z"/>
        <path class="cls-3" d="M59.86,53.83h3.81c-1.15-.74-3.15-.7-3.81,0Z"/>
        <path class="cls-3" d="M59.88,71.54h3.87c-1.34-.82-3.04-.84-3.87,0Z"/>
        <path class="cls-3" d="M59.96,48.78h3.82c-1.48-.77-3.28-.72-3.82,0Z"/>
        <path class="cls-3" d="M59.75,61.42h3.91c-.93-.69-2.85-.73-3.91,0Z"/>
        <path class="cls-3" d="M59.75,43.76h3.93c-1.17-.78-2.87-.76-3.93,0Z"/>
        <path class="cls-3" d="M59.93,57.64h3.73c-1.06-.79-2.99-.79-3.73,0Z"/>
        <path class="cls-3" d="M59.79,52.57h3.85c-.97-.77-2.94-.76-3.85,0Z"/>
        <path class="cls-1" d="M93.62,35.92c-.35-.75-.88-1.51-1.51-2.03-.89-.73-1.93-1.31-2.95-1.85-4.71-2.5-9.67-4.43-14.7-6.19-3.11-1.08-6.08-.67-8.78,1.18-1.31,.89-2.45,2.03-3.73,3.11-.09-.11-.31-.37-.54-.61-3.2-3.44-7.34-5.46-12.33-3.39-2.42,1-4.92,1.82-7.36,2.79-3.18,1.26-6.27,2.71-9.14,4.6-.65,.43-1.25,.99-1.72,1.61-1.03,1.38-.46,2.7,1.22,3.01,.1,.02,.2,.02,.3,.03,2.59,.3,4.77-.67,6.68-2.29,1.98-1.67,4.03-3.15,6.47-4.13,3.62-1.45,7.34-1.99,11.2-1.79,.68,.04,1.28,.28,1.62,.9,.38,.71,.87,1.42,1.02,2.19,.26,1.38,.29,2.8,.4,4.21,.01,.16-.03,.39-.14,.48-.86,.71-.65,1.62-.63,2.58,.07,2.6-.01,5.2,0,7.8,.02,6.29,.06,12.58,.1,18.88,.03,5.9,.08,11.79,.11,17.69,0,.71-.17,1.36-.52,2.03-.39,.78-.6,1.75-.56,2.62,.03,.8,.47,1.58,.77,2.36,.43,1.12,.91,2.23,1.34,3.35,.1,.26,.16,.54,.19,.82,.06,.49,.09,.97,.13,1.46-.27,.62,.08,1,.52,1.35,.02,.07,.04,.15,.05,.22,.17-.07,.34-.13,.52-.17,.02-.27,.19-.49,.6-.61,.92-.26,1.23-.95,.94-1.84-.04-.14-.07-.28-.13-.49,2.81-2.02,1.99-4.75,1.42-7.45,.11,.16,.23,.31,.41,.56,.06-.26,.16-.42,.12-.53-.09-.28-.2-.58-.4-.79-.07-.07-.54,.07-.61,.22-.12,.25-.18,.63-.08,.86,.34,.76,.71,1.52,.16,2.29-.64,.89-1.53,1.26-2.66,1.05-2.84-.53-3.16-3.27-2.19-5.37,.08-.17,.34-.33,.52-.35,1.62-.12,3.24-.2,4.77-.29q.94,1.69,1,4.04c.49-1.13,.51-2.24-.07-3.37-.17-.33-.32-.73-.32-1.09,0-1.29,.12-2.57,.12-3.86,.02-3.99,.02-7.98,.02-11.96,0-4.16-.01-8.32,0-12.48,.02-3.89,.12-7.78,.09-11.66-.02-2.12-.29-4.24,.16-6.36,.06-.27-.15-.75-.39-.89-.91-.52-.8-1.31-.71-2.13,.05-.42,.1-.84,.12-1.26,.06-1.38,.33-2.69,1.11-3.87,.5-.76,1.11-1.25,2.05-1.26,.84,0,1.68-.03,2.53-.03,5.25,.04,9.88,1.68,13.88,5.16,1.22,1.06,2.63,1.93,4.06,2.69,1.37,.72,2.92,.75,4.42,.32,1.05-.3,1.47-1.07,1.01-2.06Zm-31.53,61.59c-.75,.15-.95-.5-1.18-.94,.14-.39,.24-.69,.35-1,.18,.03,.36,.05,.53,.08-.14,.32-.26,.61-.44,1.05,.49-.06,.79-.1,1.12-.14,.21,.47,0,.87-.38,.95Zm-2.42-5.45c1.55,.78,3.07,.95,4.51-.22,.21,1.01-.64,2.54-1.82,3.32-.83-.39-.99-.33-1.1,.37-.59-1.11-1.19-2.22-1.78-3.32,.06-.05,.13-.1,.19-.15Zm32.59-54.58c-1.36,.33-2.69,.12-3.9-.47-1.05-.52-2.08-1.17-2.98-1.92-2.4-2-4.96-3.67-7.9-4.78-1.91-.72-3.88-.98-5.88-1.09-1.38-.08-2.77,.02-4.15,.14-1.48,.12-2.7,1.14-2.95,2.62-.29,1.74-.42,3.52-.52,5.29-.03,.44,.3,.9,.5,1.47h-5.06c1.41-1.68,1.06-3.47,.8-5.17-.44-2.84-1.8-4.2-4.6-4.24-4.38-.07-8.61,.57-12.44,2.79-1.7,.99-3.24,2.27-4.84,3.44-1.42,1.04-2.9,1.92-4.7,2.03-.65,.04-1.33-.02-1.97-.17-.74-.17-1.12-.97-.74-1.63,.33-.58,.8-1.15,1.35-1.52,2.91-1.96,6.12-3.34,9.34-4.69,2.78-1.16,5.62-2.19,8.47-3.19,3.77-1.32,7.01-.08,9.91,2.33,.59,.49,.97,1.24,1.44,1.88,.22,.29,.43,.58,.72,.97,.21-.34,.37-.54,.47-.76,1.73-4.02,7.83-5.76,11.57-4.46,3.61,1.26,7.16,2.61,10.6,4.26,2.32,1.11,4.62,2.27,6.88,3.49,.57,.31,1.05,.91,1.41,1.47,.6,.92,.23,1.66-.85,1.92Z"/>
      </g>
    </g>
  </g>
</svg>