<?xml version="1.0" standalone="no"?>
<!DOCTYPE svg PUBLIC "-//W3C//DTD SVG 20010904//EN"
 "http://www.w3.org/TR/2001/REC-SVG-20010904/DTD/svg10.dtd">
<svg version="1.0" xmlns="http://www.w3.org/2000/svg"
 width="512.000000pt" height="512.000000pt" viewBox="0 0 512.000000 512.000000"
 preserveAspectRatio="xMidYMid meet">
<metadata>
Created by potrace 1.14, written by Peter Selinger 2001-2017
</metadata>
<g transform="translate(0.000000,512.000000) scale(0.100000,-0.100000)"
fill="#000000" stroke="none">
<path d="M2710 4352 c-314 -159 -609 -380 -880 -658 -236 -243 -406 -475 -530
-726 -226 -456 -211 -799 47 -1078 139 -150 329 -261 618 -360 186 -64 202
-73 209 -107 3 -16 24 -181 47 -368 23 -187 43 -342 45 -344 2 -2 52 32 111
75 796 578 1399 1249 1553 1730 80 250 63 419 -61 603 -114 171 -255 296 -433
385 -144 72 -333 126 -439 126 -37 0 -46 4 -55 25 -26 57 -70 365 -98 678 -3
42 -9 77 -13 77 -4 0 -58 -26 -121 -58z"/>
</g>
</svg>
