<?xml version="1.0" encoding="UTF-8"?>
<svg id="Capa_2" data-name="Capa 2" xmlns="http://www.w3.org/2000/svg" viewBox="0 0 122.92 122.92">
  <defs>
    <style>
      .cls-1 {
        stroke-miterlimit: 10;
      }

      .cls-1, .cls-2 {
        fill: none;
        stroke: #fff;
        stroke-width: 5px;
      }

      .cls-2 {
        stroke-linecap: round;
        stroke-linejoin: round;
      }

      .cls-3 {
        fill: #0042bf;
      }
    </style>
  </defs>
  <g id="Capa_4" data-name="Capa 4">
    <g>
      <rect class="cls-3" width="122.92" height="122.92"/>
      <path class="cls-1" d="M27.54,43.34H95.38c2.08,0,3.77,1.69,3.77,3.77v9.93c0,16.94-13.76,30.7-30.7,30.7h-13.98c-16.94,0-30.7-13.76-30.7-30.7v-9.93c0-2.08,1.69-3.77,3.77-3.77Z"/>
      <line class="cls-1" x1="36.33" y1="97.92" x2="86.59" y2="97.92"/>
      <path class="cls-2" d="M42.21,17.02l-1.27,2.54c-.93,1.86-.71,4.08,.57,5.72l.89,1.14c1.18,1.51,1.21,3.63,.07,5.17l-1.46,1.97"/>
      <path class="cls-2" d="M60.44,17.02l-1.27,2.54c-.93,1.86-.71,4.08,.57,5.72l.89,1.14c1.18,1.51,1.21,3.63,.07,5.17l-1.46,1.97"/>
      <path class="cls-2" d="M78.67,17.02l-1.27,2.54c-.93,1.86-.71,4.08,.57,5.72l.89,1.14c1.18,1.51,1.21,3.63,.07,5.17l-1.46,1.97"/>
    </g>
  </g>
</svg>