<?xml version="1.0" encoding="UTF-8"?><svg id="Capa_2" xmlns="http://www.w3.org/2000/svg" viewBox="0 0 146.66 34.45"><defs><style>.cls-1{fill:#0042ba;}.cls-2{fill:none;stroke:#0042ba;stroke-miterlimit:10;stroke-width:.25px;}</style></defs><g id="Capa_2-2"><g><g><path class="cls-1" d="M17.31,25.92c-3.82,2.47-7.78,2.34-7.78,2.34,0,0-.11-.51-.07-1.38,.04-.87,.52-.63,.86-1.32,.12-.25,.23-.42,.43-1.01,0-.02-.23-4.2-.29-5.97-.03-.95-.21-2.55-.42-4.1-.12-.92-.4-1.65-.53-2.52-.19-1.26-.4-2.68-.4-2.68-.16,.4-.38,1.9-.6,3.59-.11,.81-.21,1.67-.32,2.47-.21,1.7-.74,6.24-.82,6.48-.12,.37-.13-.1-.13-.1,0,0,.31-4.76,.41-6.85,.05-1.02,.12-2.14,.25-3.22,.1-.81,.22-1.59,.38-2.29,0,0,.55-1.65,.72-1.68,.17-.03,.8,1.04,1.02,1.99,.48,2.15,.77,2.43,1.13,4.69,.35,2.15,.67,3.95,.71,4.24,.16,1.07,.08,4.39-.19,5.72-.06,.36-.08,.49-.32,.73-.55,.56-.95,1.23-.95,1.66s-.07,.43,.03,.68c0,0,.73,1.09,4.92-1.41,0,0,1.31-.69,1.31-2.2V8.48s-4.16-1.41-7.36-1.41-7.21,1.4-7.21,1.4v15.26c0,.94,.14,2.7,1.48,3.3,0,0-3.57-1.22-3.57-3.32V7.18s5.45-1,9.31-1,9.4,1,9.4,1V23.73c0,1.43-1.4,2.18-1.4,2.18Z"/><g><path class="cls-1" d="M69.12,13.11c-.38,.21-.89,.32-1.54,.32s-1.15-.2-1.51-.59c-.36-.39-.54-.94-.54-1.64s.18-1.27,.54-1.69c.35-.4,.81-.61,1.39-.61,.26,0,.48,.03,.66,.08v-1.78h1v5.91Zm-1-.42v-3.17c-.13-.04-.28-.06-.44-.06-.77,0-1.16,.56-1.16,1.68s.36,1.65,1.09,1.65c.24,0,.41-.03,.52-.1Z"/><path class="cls-1" d="M73.66,11.11l-2.7,.39c.08,.82,.48,1.23,1.2,1.23,.43,0,.8-.08,1.11-.24l.24,.63c-.38,.21-.86,.31-1.46,.31-.63,0-1.13-.2-1.5-.6-.36-.4-.55-.96-.55-1.7s.17-1.27,.5-1.67c.34-.4,.8-.6,1.38-.6s1.04,.19,1.34,.58c.31,.38,.45,.94,.43,1.68Zm-.93-.39c0-.83-.29-1.25-.87-1.25-.31,0-.54,.12-.7,.37-.18,.27-.27,.65-.25,1.16l1.83-.28Z"/></g><g><path class="cls-1" d="M23.51,25.1h-1.56V15.43h1.56v9.67Z"/><path class="cls-1" d="M30.73,21.65c0,1.07-.24,1.92-.71,2.55-.51,.68-1.23,1.02-2.17,1.02s-1.65-.34-2.17-1.02c-.47-.63-.71-1.48-.71-2.55s.23-1.93,.71-2.56c.51-.68,1.23-1.02,2.17-1.02s1.66,.34,2.17,1.02c.47,.63,.71,1.49,.71,2.56Zm-1.55-.01c0-1.73-.44-2.59-1.32-2.59s-1.32,.86-1.32,2.59,.44,2.52,1.32,2.52,1.32-.84,1.32-2.52Z"/><path class="cls-1" d="M36.09,23.11c0,.58-.23,1.08-.68,1.49-.45,.41-1.05,.62-1.78,.62-.79,0-1.42-.17-1.91-.5l.41-1c.33,.27,.77,.4,1.3,.4,.32,0,.57-.09,.77-.28,.2-.18,.29-.42,.29-.7s-.08-.52-.23-.69c-.15-.17-.41-.32-.78-.46-1.05-.4-1.58-1.05-1.58-1.94,0-.56,.2-1.04,.61-1.42,.41-.38,.93-.58,1.58-.58,.7,0,1.3,.16,1.79,.49l-.38,.91c-.32-.26-.68-.39-1.1-.39-.31,0-.55,.09-.72,.26-.18,.18-.26,.39-.26,.65,0,.45,.34,.82,1.02,1.09,1.1,.44,1.65,1.12,1.65,2.04Z"/><path class="cls-1" d="M47.63,25.1h-1.82l-.74-2.46h-3.09l-.77,2.46h-1.59l3.18-9.59h1.67l3.16,9.59Zm-2.81-3.5l-.99-3.38c-.14-.47-.22-.86-.25-1.16h-.03c-.05,.25-.13,.64-.26,1.16l-1.03,3.38h2.56Z"/><path class="cls-1" d="M54.06,25.1h-1.56v-4.9c0-.77-.41-1.15-1.24-1.15-.39,0-.75,.06-1.08,.19v5.86h-1.56v-6.54c.71-.33,1.61-.5,2.7-.5,.97,0,1.68,.21,2.14,.64,.4,.36,.6,.85,.6,1.47v4.92Z"/><path class="cls-1" d="M61.11,24.73c-.6,.33-1.4,.5-2.41,.5s-1.81-.31-2.37-.92c-.56-.62-.85-1.47-.85-2.58s.28-1.99,.85-2.65c.55-.63,1.27-.95,2.18-.95,.4,0,.75,.04,1.04,.13v-2.8h1.56v9.26Zm-1.56-.65v-4.97c-.21-.06-.44-.09-.69-.09-1.21,0-1.82,.88-1.82,2.63s.57,2.59,1.71,2.59c.38,0,.64-.05,.81-.15Z"/><path class="cls-1" d="M68.22,21.6l-4.23,.62c.13,1.28,.76,1.92,1.88,1.92,.67,0,1.25-.13,1.74-.38l.37,.98c-.59,.32-1.35,.49-2.28,.49-.99,0-1.77-.31-2.35-.93-.57-.62-.86-1.51-.86-2.66s.26-1.99,.79-2.62c.53-.63,1.25-.94,2.16-.94s1.62,.3,2.1,.9c.48,.6,.7,1.48,.67,2.63Zm-1.46-.61c0-1.31-.45-1.96-1.36-1.96-.48,0-.85,.19-1.1,.58-.28,.42-.41,1.03-.4,1.82l2.86-.44Z"/><path class="cls-1" d="M73.6,23.11c0,.58-.23,1.08-.68,1.49-.45,.41-1.05,.62-1.78,.62-.79,0-1.42-.17-1.91-.5l.41-1c.33,.27,.77,.4,1.3,.4,.32,0,.57-.09,.77-.28,.2-.18,.29-.42,.29-.7s-.08-.52-.23-.69c-.15-.17-.41-.32-.78-.46-1.05-.4-1.58-1.05-1.58-1.94,0-.56,.2-1.04,.61-1.42,.41-.38,.93-.58,1.58-.58,.7,0,1.3,.16,1.79,.49l-.38,.91c-.32-.26-.68-.39-1.1-.39-.31,0-.55,.09-.72,.26-.17,.18-.26,.39-.26,.65,0,.45,.34,.82,1.02,1.09,1.1,.44,1.65,1.12,1.65,2.04Z"/></g><g><path class="cls-1" d="M30.2,13.36h-1v-3.12c0-.49-.26-.74-.79-.74-.25,0-.48,.04-.69,.12v3.74h-1v-4.17c.45-.21,1.03-.32,1.72-.32,.62,0,1.07,.14,1.36,.41,.26,.23,.38,.54,.38,.94v3.14Z"/><path class="cls-1" d="M32.35,7.7c0,.14-.05,.25-.16,.35-.11,.1-.24,.14-.39,.14s-.28-.05-.39-.14c-.11-.1-.16-.21-.16-.35s.05-.25,.16-.35c.11-.1,.24-.15,.39-.15s.28,.05,.39,.14c.11,.1,.16,.21,.16,.36Zm-.05,5.66h-1v-4.41h1v4.41Z"/><path class="cls-1" d="M36.83,8.95l-1.41,4.41h-.95l-1.44-4.41h1.06l.78,2.85c.06,.21,.1,.41,.11,.6h.02c.03-.16,.07-.36,.11-.6l.79-2.85h.93Z"/><path class="cls-1" d="M41.01,11.13l-2.7,.39c.08,.82,.48,1.23,1.2,1.23,.43,0,.8-.08,1.11-.24l.24,.63c-.38,.21-.86,.31-1.46,.31-.63,0-1.13-.2-1.5-.6-.37-.4-.55-.96-.55-1.7s.17-1.27,.5-1.67c.34-.4,.79-.6,1.38-.6s1.04,.19,1.34,.58c.31,.38,.45,.94,.43,1.68Zm-.93-.39c0-.83-.29-1.25-.87-1.25-.31,0-.54,.12-.7,.37-.18,.27-.26,.65-.25,1.16l1.83-.28Z"/><path class="cls-1" d="M44.04,8.88l-.2,.73c-.15-.05-.3-.07-.46-.07-.19,0-.35,.04-.47,.11v3.72h-1v-4.17c.49-.23,1.19-.34,2.13-.31Z"/><path class="cls-1" d="M47.22,12.09c0,.37-.14,.69-.43,.95-.29,.26-.67,.39-1.14,.39-.5,0-.91-.11-1.22-.32l.26-.64c.21,.17,.49,.26,.83,.26,.2,0,.37-.06,.49-.18,.12-.12,.19-.27,.19-.45s-.05-.33-.15-.44c-.1-.11-.27-.2-.5-.29-.67-.26-1.01-.67-1.01-1.24,0-.36,.13-.66,.39-.91,.26-.25,.6-.37,1.01-.37,.45,0,.83,.1,1.14,.31l-.25,.58c-.2-.16-.44-.25-.7-.25-.2,0-.35,.06-.46,.17-.11,.11-.17,.25-.17,.41,0,.29,.22,.52,.65,.7,.7,.28,1.05,.72,1.05,1.3Z"/><path class="cls-1" d="M49.17,7.7c0,.14-.05,.25-.16,.35-.11,.1-.24,.14-.39,.14s-.28-.05-.39-.14c-.11-.1-.16-.21-.16-.35s.05-.25,.16-.35c.11-.1,.24-.15,.39-.15s.28,.05,.39,.14c.11,.1,.16,.21,.16,.36Zm-.05,5.66h-1v-4.41h1v4.41Z"/><path class="cls-1" d="M53.64,13.12c-.38,.21-.89,.32-1.54,.32s-1.15-.2-1.51-.59c-.36-.39-.54-.94-.54-1.64s.18-1.27,.54-1.69c.35-.4,.81-.61,1.39-.61,.26,0,.48,.03,.66,.08v-1.78h1v5.91Zm-1-.42v-3.17c-.13-.04-.28-.06-.44-.06-.77,0-1.16,.56-1.16,1.68s.36,1.65,1.09,1.65c.24,0,.41-.03,.52-.1Z"/><path class="cls-1" d="M57.89,13.12c-.4,.21-.93,.32-1.59,.32-1.2,0-1.8-.45-1.8-1.34,0-.53,.24-.93,.73-1.2,.38-.21,.96-.35,1.73-.42v-.24c0-.48-.29-.73-.87-.73-.37,0-.73,.09-1.1,.27l-.23-.57c.46-.22,.96-.33,1.51-.33,1.08,0,1.63,.51,1.63,1.52v2.73Zm-.93-.36v-1.82c-.52,.07-.89,.17-1.11,.3-.27,.17-.41,.44-.41,.82,0,.55,.31,.82,.92,.82,.23,0,.43-.04,.6-.12Z"/><path class="cls-1" d="M62.38,13.12c-.38,.21-.89,.32-1.54,.32s-1.15-.2-1.51-.59c-.36-.39-.54-.94-.54-1.64s.18-1.27,.54-1.69c.35-.4,.81-.61,1.39-.61,.26,0,.48,.03,.66,.08v-1.78h1v5.91Zm-1-.42v-3.17c-.13-.04-.28-.06-.44-.06-.77,0-1.16,.56-1.16,1.68s.36,1.65,1.09,1.65c.24,0,.41-.03,.51-.1Z"/></g><path class="cls-1" d="M21.94,7.22h1.06v4.74c0,.52,.28,.78,.84,.78,.27,0,.51-.04,.73-.13V7.22h1.06v5.85c-.48,.23-1.09,.34-1.83,.34-.65,0-1.14-.14-1.45-.43-.27-.24-.41-.58-.41-1V7.22Z"/></g><g><path class="cls-1" d="M119.47,23.02c-2.92,0-5.3-2.38-5.3-5.3s2.38-5.3,5.3-5.3,5.3,2.38,5.3,5.3-2.38,5.3-5.3,5.3Zm0-7.64c-1.29,0-2.34,1.05-2.34,2.34s1.05,2.34,2.34,2.34,2.34-1.05,2.34-2.34-1.05-2.34-2.34-2.34Z"/><path class="cls-1" d="M121.12,24.02c0,.94-.59,1.83-1.52,2.18-.94,.35-1.95,.05-2.57-.65l-2.85,1.06c1.26,2.23,3.98,3.28,6.46,2.36,2.47-.92,3.85-3.5,3.34-6.01l-2.85,1.06Z"/><path class="cls-1" d="M85.39,9.17c0-.95,.82-1.69,1.8-1.69s1.8,.74,1.8,1.69-.8,1.71-1.8,1.71-1.8-.76-1.8-1.71Z"/><rect class="cls-1" x="85.78" y="12.65" width="2.84" height="10.11"/><path class="cls-1" d="M124.98,9.17c0-.95,.82-1.69,1.8-1.69s1.8,.74,1.8,1.69-.8,1.71-1.8,1.71-1.8-.76-1.8-1.71Z"/><rect class="cls-1" x="125.37" y="12.91" width="2.84" height="10.11"/><path class="cls-1" d="M110.74,12.65h2.84v10.11h-2.84v-1.45c-.67,1.04-1.97,1.71-3.34,1.71-2.79,0-4.87-2.17-4.87-5.31s2.04-5.33,4.94-5.33c1.3,0,2.6,.56,3.27,1.6v-1.34Zm-.09,5.07c0-1.54-1.23-2.69-2.64-2.69s-2.58,1.21-2.58,2.69,1.1,2.66,2.6,2.66,2.62-1.21,2.62-2.66Z"/><path class="cls-1" d="M143.83,12.65h2.84v10.11h-2.84v-1.45c-.67,1.04-1.97,1.71-3.34,1.71-2.79,0-4.87-2.17-4.87-5.31s2.04-5.33,4.94-5.33c1.3,0,2.6,.56,3.27,1.6v-1.34Zm-.09,5.07c0-1.54-1.23-2.69-2.64-2.69s-2.58,1.21-2.58,2.69,1.1,2.66,2.6,2.66,2.62-1.21,2.62-2.66Z"/><path class="cls-1" d="M98.2,12.39c-1.06,0-2.64,.52-3.38,1.99-.61-1.28-1.75-1.99-3.25-1.99-.8,0-1.76,.35-2.34,1.07v2.26c.4-.48,.97-.66,1.54-.66,.95,0,1.78,.69,1.78,2.3v5.41h2.84v-4.98c0-1.88,.78-2.75,1.99-2.73,1,0,1.82,.67,1.82,2.25v5.46h2.86v-5.54c0-3.03-1.32-4.83-3.85-4.83Z"/><path class="cls-1" d="M131.16,12.39c-.69,0-1.67,.29-2.35,.92v2.34c.45-.42,1.05-.58,1.59-.58,.97,0,1.93,.71,1.93,2.3v5.39h2.84v-5.54c.02-3.03-1.36-4.83-4.01-4.83Z"/></g><line class="cls-2" x1="79.75" x2="79.75" y2="34.45"/></g></g></svg>