<svg xmlns="http://www.w3.org/2000/svg" version="1.0" preserveAspectRatio="xMidYMid meet" viewBox="114.13 71 283.75 369.91"><g transform="translate(0.000000,512.000000) scale(0.100000,-0.100000)" fill="#0aeba7" stroke="none"><path d="M2710 4352 c-314 -159 -609 -380 -880 -658 -236 -243 -406 -475 -530 -726 -226 -456 -211 -799 47 -1078 139 -150 329 -261 618 -360 186 -64 202 -73 209 -107 3 -16 24 -181 47 -368 23 -187 43 -342 45 -344 2 -2 52 32 111 75 796 578 1399 1249 1553 1730 80 250 63 419 -61 603 -114 171 -255 296 -433 385 -144 72 -333 126 -439 126 -37 0 -46 4 -55 25 -26 57 -70 365 -98 678 -3 42 -9 77 -13 77 -4 0 -58 -26 -121 -58z"></path></g></svg>